<svg width="59" height="20" viewBox="0 0 59 20" fill="none" xmlns="http://www.w3.org/2000/svg">
<g clip-path="url(#clip0_59_545)">
<path d="M40.1093 1.09734C40.5034 0.884884 40.9951 1.0321 41.2076 1.42612C41.321 1.63642 41.3705 1.7511 41.4748 2.07312C41.5742 2.3802 41.7146 2.84212 41.8619 3.26553C42.0139 3.7026 42.1656 4.07991 42.862 6.348C43.5468 8.57832 44.8343 12.6195 45.3826 14.9159C45.7062 16.2714 45.8774 17.0726 45.9683 17.5403C46.0138 17.7743 46.0398 17.9283 46.0548 18.0289C46.0659 18.1028 46.0784 18.1931 46.0784 18.2652C46.0784 18.7129 45.7155 19.0758 45.2678 19.0758C44.8341 19.0758 44.48 18.7352 44.4583 18.3069L44.4584 18.3088C44.4602 18.3424 44.4624 18.3417 44.4515 18.2686C44.4409 18.1977 44.4193 18.0678 44.3769 17.8494C44.292 17.4126 44.1265 16.6356 43.8057 15.2923C43.2733 13.0621 42.0116 9.10167 41.3122 6.82384C40.6245 4.58384 40.4802 4.22823 40.3306 3.79827C40.1763 3.35465 40.0183 2.83754 39.9325 2.57262C39.8873 2.43323 39.8646 2.37078 39.8477 2.33021C39.8336 2.29639 39.82 2.26871 39.7806 2.19555C39.5681 1.80152 39.7153 1.30983 40.1093 1.09734Z" fill="black"/>
<path d="M39.7393 1.51531C39.9025 1.09844 40.3728 0.892788 40.7897 1.05601C41.2065 1.21923 41.4121 1.68951 41.2489 2.10637C40.913 2.9641 39.475 5.82202 38.0861 8.62023C37.3832 10.0364 36.6837 11.4549 36.1224 12.6349C35.551 13.836 35.1502 14.7341 35.0173 15.1414C34.8227 15.7382 34.6748 16.2269 34.5591 16.6347C35.3155 16.0321 36.4359 15.2477 38.3352 13.9627C40.9172 12.2157 44.9798 9.56928 47.1598 8.16858C48.2614 7.4608 48.8337 7.10237 49.1704 6.88136C49.5055 6.66135 49.5013 6.64273 49.5088 6.63341C49.7898 6.28492 50.3001 6.23021 50.6486 6.51116C50.9971 6.79214 51.0519 7.30245 50.7709 7.65097C50.5906 7.87462 50.4043 8.01061 50.0599 8.23666C49.7171 8.46172 49.1123 8.84101 48.0361 9.5325C45.8605 10.9304 41.8102 13.5689 39.2437 15.3054C36.6542 17.0575 35.6245 17.8065 34.9894 18.3973C34.705 18.6618 34.4746 18.8549 34.2849 18.9928C34.1072 19.122 33.9185 19.2379 33.7226 19.2991C33.5544 19.3517 33.0832 19.4423 32.7425 19.0417C32.7408 19.0397 32.7392 19.0375 32.7375 19.0355C32.6667 18.9647 32.6194 18.8918 32.5883 18.8318C32.554 18.7657 32.5341 18.7055 32.5221 18.6602C32.5098 18.6142 32.503 18.5734 32.4991 18.5414C32.4915 18.4792 32.4915 18.4253 32.4927 18.388C32.4951 18.3138 32.5048 18.2414 32.515 18.1802C32.5259 18.1149 32.5408 18.0411 32.5595 17.9582C32.694 17.362 32.8735 16.4863 33.476 14.6387C33.648 14.1113 34.1008 13.1105 34.6584 11.9384C35.2261 10.7451 35.9309 9.31588 36.634 7.89944C38.057 5.03233 39.4378 2.28531 39.7393 1.51531Z" fill="black"/>
<path d="M31.3479 6.03919C31.6233 6.02204 32.1674 6.02659 33.1871 6.05749C35.2624 6.12037 39.4101 6.2982 43.4241 6.35346C47.4338 6.40866 51.1693 6.33572 53.2844 6.3144C55.3652 6.29344 55.8309 6.31955 56.4717 6.49524C56.9034 6.61362 57.1575 7.05959 57.0391 7.49133C56.9207 7.92307 56.4747 8.1771 56.043 8.05873C55.6606 7.95388 55.4319 7.91403 53.3007 7.9355C51.2038 7.95663 47.437 8.03011 43.4018 7.97456C39.7406 7.92415 35.9501 7.77173 33.7531 7.69776C34.0163 7.91154 34.329 8.16594 34.701 8.46948C36.9085 10.2707 41.1068 13.7137 43.2062 15.4342C44.2563 16.2948 44.7814 16.7245 45.0442 16.9391C45.1762 17.0469 45.2402 17.0989 45.271 17.1236C45.2734 17.1256 45.2756 17.1274 45.2774 17.1288C45.478 17.2764 45.6083 17.514 45.6083 17.7822C45.6083 18.2298 45.2453 18.5928 44.7977 18.5928C44.7532 18.5928 44.6487 18.5898 44.5247 18.5455C44.4436 18.5166 44.386 18.4809 44.3698 18.4708C44.333 18.4481 44.3044 18.4259 44.3026 18.4245C44.2878 18.4133 44.2707 18.3997 44.2549 18.3869C44.2188 18.3579 44.1504 18.3023 44.0189 18.1949C43.7547 17.9793 43.2285 17.5486 42.1785 16.6881C40.0779 14.9665 35.8818 11.5253 33.6761 9.72548C32.5713 8.82395 32.0039 8.36553 31.6951 8.12338C31.5392 8.00114 31.4618 7.94396 31.4201 7.91527C31.3936 7.897 31.3936 7.89797 31.3819 7.89205C31.2918 7.84653 31.0181 7.71878 30.8682 7.63206C30.8659 7.63073 30.777 7.58216 30.6953 7.50936C30.6583 7.47642 30.544 7.37164 30.4727 7.19395C30.3777 6.95729 30.3889 6.65802 30.5672 6.40904C30.7002 6.22327 30.871 6.14706 30.9293 6.12275C31.0051 6.09112 31.0727 6.07549 31.1126 6.06743C31.1945 6.05091 31.2785 6.04352 31.3479 6.03919ZM44.908 16.9792L44.9041 16.9786C44.9018 16.9783 44.8995 16.9781 44.8972 16.9778C44.9008 16.9783 44.9044 16.9787 44.908 16.9792ZM44.8327 16.9725C44.8114 16.9715 44.7977 16.9716 44.7977 16.9716C44.8094 16.9716 44.8211 16.972 44.8327 16.9725Z" fill="black"/>
<path d="M53.8712 3.52852C54.2575 3.30225 54.754 3.43196 54.9803 3.81824C55.0924 4.00965 55.1794 4.1289 55.4109 4.40209C55.6475 4.68119 55.9887 5.06675 56.386 5.44629C56.8318 5.83989 57.1744 6.13537 57.4075 6.33446C57.5252 6.43495 57.6153 6.51113 57.6772 6.56341C57.7076 6.58911 57.733 6.61046 57.7505 6.62533C57.7592 6.63268 57.7679 6.64009 57.7753 6.64644C57.7788 6.6495 57.7839 6.65385 57.7893 6.65866C57.7893 6.65866 57.7941 6.66276 57.8012 6.6693L57.8281 6.69507L57.8569 6.72533C58.1443 7.04352 58.1347 7.53474 57.8281 7.84139C57.5231 8.14642 57.0355 8.15746 56.7172 7.87464C56.7235 7.88023 56.7214 7.87822 56.7025 7.86215C56.6864 7.84855 56.6635 7.82926 56.6314 7.80217C56.5682 7.74882 56.4756 7.67051 56.3548 7.56733C56.1131 7.36096 55.7593 7.05577 55.2999 6.64995L55.2883 6.63984L55.2772 6.62928C54.8176 6.19134 54.4314 5.75382 54.1741 5.45025C53.9099 5.13851 53.7586 4.94 53.5815 4.63763C53.3552 4.25135 53.4849 3.75479 53.8712 3.52852Z" fill="black"/>
<path d="M58.0705 7.50403C58.0477 7.62814 58.001 7.71766 57.9829 7.75121C57.9601 7.79321 57.9374 7.8269 57.9224 7.84822C57.892 7.89146 57.8564 7.93572 57.8194 7.97971C57.7428 8.0706 57.6158 8.21258 57.401 8.44255C57.0109 8.86008 56.2337 9.61098 55.8455 9.9992C55.4071 10.4447 55.2847 10.6159 55.1577 10.8025L55.1546 10.8069L55.1516 10.8113C55.1194 10.8572 55.058 10.9457 54.972 11.0318C54.8759 11.1279 54.7759 11.196 54.6777 11.2511C54.2873 11.4702 53.7932 11.3314 53.5741 10.9411C53.3651 10.5688 53.4818 10.1023 53.8317 9.86977C54.0169 9.59909 54.2071 9.35249 54.6948 8.85727L54.697 8.85508L54.6992 8.8528C55.1318 8.42018 55.85 7.72793 56.2164 7.33579C56.426 7.11147 56.5301 6.9938 56.5792 6.93554C56.5822 6.93189 56.5849 6.92854 56.5872 6.92566C56.7587 6.65351 57.084 6.49867 57.4197 6.56033C57.86 6.64122 58.1514 7.06372 58.0705 7.50403Z" fill="black"/>
</g>
<path d="M0.467984 9V7.572L4.12798 2.172H0.491984V0.599999H6.32398V2.028L2.63998 7.404H6.33598V9H0.467984ZM6.7408 9L9.7888 0.599999H11.9608L15.0208 9H13.0168L12.4288 7.26H9.3088L8.7088 9H6.7408ZM9.8368 5.748H11.9128L10.8568 2.688L9.8368 5.748ZM15.5894 9V0.599999H18.7934C19.3694 0.599999 19.8774 0.7 20.3174 0.9C20.7574 1.1 21.1014 1.388 21.3494 1.764C21.5974 2.132 21.7214 2.572 21.7214 3.084C21.7214 3.644 21.5694 4.112 21.2654 4.488C20.9614 4.864 20.5414 5.132 20.0054 5.292L22.2974 9H20.1134L18.1094 5.58H17.4854V9H15.5894ZM17.4854 3.972H18.7574C19.0534 3.972 19.2734 3.928 19.4174 3.84C19.5694 3.744 19.6734 3.628 19.7294 3.492C19.7854 3.356 19.8134 3.22 19.8134 3.084C19.8134 2.948 19.7854 2.816 19.7294 2.688C19.6734 2.552 19.5694 2.44 19.4174 2.352C19.2734 2.264 19.0534 2.22 18.7574 2.22H17.4854V3.972ZM22.3736 9L25.4216 0.599999H27.5936L30.6536 9H28.6496L28.0616 7.26H24.9416L24.3416 9H22.3736ZM25.4696 5.748H27.5456L26.4896 2.688L25.4696 5.748ZM31.2222 9V0.599999H33.1182V3.744H36.4902V0.599999H38.3742V9H36.4902V5.376H33.1182V9H31.2222ZM2.87998 19V15.508L-1.56276e-05 10.6H2.14798L3.83998 13.588L5.51998 10.6H7.63198L4.76398 15.508V19H2.87998ZM6.3658 19L9.4138 10.6H11.5858L14.6458 19H12.6418L12.0538 17.26H8.9338L8.3338 19H6.3658ZM9.4618 15.748H11.5378L10.4818 12.688L9.4618 15.748ZM22.1393 19.156L21.3473 18.376C20.9873 18.624 20.5913 18.816 20.1593 18.952C19.7273 19.08 19.2793 19.144 18.8153 19.144C18.2393 19.144 17.6873 19.044 17.1593 18.844C16.6393 18.644 16.1713 18.356 15.7553 17.98C15.3473 17.604 15.0233 17.148 14.7833 16.612C14.5513 16.076 14.4353 15.472 14.4353 14.8C14.4353 14.128 14.5513 13.524 14.7833 12.988C15.0233 12.452 15.3473 11.996 15.7553 11.62C16.1713 11.244 16.6393 10.956 17.1593 10.756C17.6873 10.556 18.2393 10.456 18.8153 10.456C19.3913 10.456 19.9433 10.556 20.4713 10.756C20.9993 10.956 21.4673 11.244 21.8753 11.62C22.2913 11.996 22.6193 12.452 22.8593 12.988C23.0993 13.524 23.2193 14.128 23.2193 14.8C23.2193 15.248 23.1593 15.672 23.0393 16.072C22.9193 16.464 22.7553 16.824 22.5473 17.152L23.3513 17.896L22.1393 19.156ZM16.3913 14.788C16.3913 15.38 16.5113 15.872 16.7513 16.264C16.9913 16.648 17.2953 16.936 17.6633 17.128C18.0393 17.32 18.4233 17.416 18.8153 17.416C19.0313 17.416 19.2433 17.392 19.4513 17.344C19.6673 17.296 19.8673 17.22 20.0513 17.116L18.7313 15.856L19.9313 14.596L21.1193 15.784C21.1673 15.64 21.2033 15.484 21.2273 15.316C21.2513 15.148 21.2633 14.972 21.2633 14.788C21.2633 14.188 21.1393 13.696 20.8913 13.312C20.6433 12.92 20.3313 12.632 19.9553 12.448C19.5793 12.256 19.1993 12.16 18.8153 12.16C18.4313 12.16 18.0513 12.256 17.6753 12.448C17.3073 12.632 16.9993 12.92 16.7513 13.312C16.5113 13.696 16.3913 14.188 16.3913 14.788ZM27.5164 19.144C26.7324 19.144 26.0884 18.988 25.5844 18.676C25.0804 18.364 24.7084 17.948 24.4684 17.428C24.2284 16.908 24.1084 16.332 24.1084 15.7V10.6H25.9924V15.712C25.9924 16.256 26.1244 16.676 26.3884 16.972C26.6524 17.26 27.0404 17.404 27.5524 17.404C28.0564 17.404 28.4444 17.26 28.7164 16.972C28.9964 16.676 29.1364 16.256 29.1364 15.712V10.6H31.0204V15.7C31.0204 16.356 30.9124 16.904 30.6964 17.344C30.4804 17.784 30.1964 18.136 29.8444 18.4C29.5004 18.664 29.1204 18.856 28.7044 18.976C28.2964 19.088 27.9004 19.144 27.5164 19.144ZM32.1011 19V10.6H35.4731C36.4011 10.6 37.0931 10.8 37.5491 11.2C38.0131 11.592 38.2451 12.108 38.2451 12.748C38.2451 13.212 38.1411 13.58 37.9331 13.852C37.7331 14.124 37.4731 14.344 37.1531 14.512C37.3771 14.608 37.6011 14.764 37.8251 14.98C38.0491 15.188 38.2371 15.436 38.3891 15.724C38.5491 16.012 38.6291 16.32 38.6291 16.648C38.6291 17.08 38.5131 17.476 38.2811 17.836C38.0571 18.188 37.7331 18.472 37.3091 18.688C36.8851 18.896 36.3851 19 35.8091 19H32.1011ZM33.9971 17.38H35.7851C36.1371 17.38 36.3771 17.296 36.5051 17.128C36.6411 16.952 36.7091 16.72 36.7091 16.432C36.7091 16.152 36.6411 15.928 36.5051 15.76C36.3771 15.584 36.1291 15.496 35.7611 15.496H33.9971V17.38ZM33.9971 13.852H35.3051C35.6811 13.852 35.9411 13.792 36.0851 13.672C36.2291 13.544 36.3011 13.328 36.3011 13.024C36.3011 12.752 36.2331 12.552 36.0971 12.424C35.9611 12.288 35.6931 12.22 35.2931 12.22H33.9971V13.852Z" fill="black"/>
<defs>
<clipPath id="clip0_59_545">
<rect width="19" height="18" fill="white" transform="translate(39.084 1)"/>
</clipPath>
</defs>
</svg>
